<?xml version="1.0" encoding="UTF-8"?>
<!DOCTYPE svg PUBLIC "-//W3C//DTD SVG 1.1//EN" "http://www.w3.org/Graphics/SVG/1.1/DTD/svg11.dtd">
<svg xmlns="http://www.w3.org/2000/svg" style="background: transparent; background-color: transparent; color-scheme: light dark;" xmlns:xlink="http://www.w3.org/1999/xlink" version="1.1" width="1700px" height="1100px" viewBox="0 0 1700 1100"><defs/><g><g data-cell-id="0"><g data-cell-id="e1u3LGOlOh_6umvc7Njz-119"><g data-cell-id="k8zGtBESLR32vEerugJZ-1"><g transform="translate(0.5,0.5)"/><g data-cell-id="e1u3LGOlOh_6umvc7Njz-1"><g><ellipse cx="563.1" cy="549.7" rx="435.29320094452714" ry="435.29320094452714" fill="none" stroke="#00fac8" stroke-width="4" pointer-events="all" style="stroke: rgb(0, 250, 200);"/></g><g><g fill="#FFE6CC" font-family="Helvetica" font-weight="bold" text-anchor="middle" font-size="22px" style="fill: rgb(255, 230, 204);"><text x="565.1" y="160.41"><tspan style="font-size: 2.04545em;"><tspan>الناطق</tspan></tspan></text></g></g></g><g data-cell-id="5utG4yoqGBnhhhAGblXh-133"><g><ellipse cx="1137.9" cy="549.7" rx="435.29320094452714" ry="435.29320094452714" fill="none" stroke="#00fac8" stroke-width="4" pointer-events="all" style="stroke: rgb(0, 250, 200);"/></g><g><g fill="#FFE6CC" font-family="Helvetica" font-weight="bold" text-anchor="middle" font-size="22px" style="fill: rgb(255, 230, 204);"><text x="1139.9" y="961"><tspan style="font-size: 2.04545em;"><tspan>الإنسان</tspan></tspan></text></g></g></g><g data-cell-id="NM6jg3-jSMwz8pZw23oO-160"><g transform="translate(0.5,0.5)"/><g data-cell-id="NM6jg3-jSMwz8pZw23oO-161"><g transform="translate(0.5,0.5)"><ellipse cx="1117.36" cy="278.51" rx="24.216500896355395" ry="24.216500896355395" fill="none" stroke="#00fac8" stroke-width="2" pointer-events="all" style="stroke: rgb(0, 250, 200);"/></g></g><g data-cell-id="NM6jg3-jSMwz8pZw23oO-162"><g transform="translate(0.5,0.5)"><ellipse cx="1117.36" cy="815.32" rx="24.216500896355395" ry="24.216500896355395" fill="none" stroke="#00fac8" stroke-width="2" pointer-events="all" style="stroke: rgb(0, 250, 200);"/></g></g><g data-cell-id="NM6jg3-jSMwz8pZw23oO-163"><g transform="translate(0.5,0.5)"><ellipse cx="1250.55" cy="322.91" rx="24.216500896355395" ry="24.216500896355395" fill="none" stroke="#00fac8" stroke-width="2" transform="rotate(30,1250.55,322.91)" pointer-events="all" style="stroke: rgb(0, 250, 200);"/></g></g><g data-cell-id="NM6jg3-jSMwz8pZw23oO-164"><g transform="translate(0.5,0.5)"><ellipse cx="984.17" cy="787.07" rx="24.216500896355395" ry="24.216500896355395" fill="none" stroke="#00fac8" stroke-width="2" transform="rotate(30,984.17,787.07)" pointer-events="all" style="stroke: rgb(0, 250, 200);"/></g></g><g data-cell-id="NM6jg3-jSMwz8pZw23oO-165"><g transform="translate(0.5,0.5)"><ellipse cx="982.16" cy="322.92" rx="24.216500896355395" ry="24.216500896355395" fill="none" stroke="#00fac8" stroke-width="2" transform="rotate(-30,982.16,322.92)" pointer-events="all" style="stroke: rgb(0, 250, 200);"/></g></g><g data-cell-id="NM6jg3-jSMwz8pZw23oO-166"><g transform="translate(0.5,0.5)"><ellipse cx="1252.58" cy="787.07" rx="24.216500896355395" ry="24.216500896355395" fill="none" stroke="#00fac8" stroke-width="2" transform="rotate(-30,1252.58,787.07)" pointer-events="all" style="stroke: rgb(0, 250, 200);"/></g></g><g data-cell-id="NM6jg3-jSMwz8pZw23oO-167"><g transform="translate(0.5,0.5)"><ellipse cx="1385.99" cy="554.99" rx="24.216500896355395" ry="24.216500896355395" fill="none" stroke="#00fac8" stroke-width="2" transform="rotate(90,1385.99,554.99)" pointer-events="all" style="stroke: rgb(0, 250, 200);"/></g></g><g data-cell-id="NM6jg3-jSMwz8pZw23oO-168"><g transform="translate(0.5,0.5)"><ellipse cx="849.18" cy="554.99" rx="24.216500896355395" ry="24.216500896355395" fill="none" stroke="#00fac8" stroke-width="2" transform="rotate(90,849.18,554.99)" pointer-events="all" style="stroke: rgb(0, 250, 200);"/></g></g><g data-cell-id="NM6jg3-jSMwz8pZw23oO-169"><g transform="translate(0.5,0.5)"><ellipse cx="1341.59" cy="688.18" rx="24.216500896355395" ry="24.216500896355395" fill="none" stroke="#00fac8" stroke-width="2" transform="rotate(120,1341.59,688.18)" pointer-events="all" style="stroke: rgb(0, 250, 200);"/></g></g><g data-cell-id="NM6jg3-jSMwz8pZw23oO-170"><g transform="translate(0.5,0.5)"><ellipse cx="877.43" cy="421.8" rx="24.216500896355395" ry="24.216500896355395" fill="none" stroke="#00fac8" stroke-width="2" transform="rotate(120,877.43,421.8)" pointer-events="all" style="stroke: rgb(0, 250, 200);"/></g></g><g data-cell-id="NM6jg3-jSMwz8pZw23oO-171"><g transform="translate(0.5,0.5)"><ellipse cx="1341.59" cy="419.78" rx="24.216500896355395" ry="24.216500896355395" fill="none" stroke="#00fac8" stroke-width="2" transform="rotate(60,1341.59,419.78)" pointer-events="all" style="stroke: rgb(0, 250, 200);"/></g></g><g data-cell-id="NM6jg3-jSMwz8pZw23oO-172"><g transform="translate(0.5,0.5)"><ellipse cx="877.43" cy="690.2" rx="24.216500896355395" ry="24.216500896355395" fill="none" stroke="#00fac8" stroke-width="2" transform="rotate(60,877.43,690.2)" pointer-events="all" style="stroke: rgb(0, 250, 200);"/></g></g><g data-cell-id="NM6jg3-jSMwz8pZw23oO-173"><g transform="translate(0.5,0.5)"/><g data-cell-id="NM6jg3-jSMwz8pZw23oO-174"><g transform="translate(0.5,0.5)"><ellipse cx="1119.6" cy="371.23" rx="16.032993696897364" ry="16.032993696897364" fill="none" stroke="#00fac8" stroke-width="2" pointer-events="all" style="stroke: rgb(0, 250, 200);"/></g></g><g data-cell-id="NM6jg3-jSMwz8pZw23oO-175"><g transform="translate(0.5,0.5)"><ellipse cx="1119.6" cy="726.64" rx="16.032993696897364" ry="16.032993696897364" fill="none" stroke="#00fac8" stroke-width="2" pointer-events="all" style="stroke: rgb(0, 250, 200);"/></g></g><g data-cell-id="NM6jg3-jSMwz8pZw23oO-176"><g transform="translate(0.5,0.5)"/><g data-cell-id="NM6jg3-jSMwz8pZw23oO-177"><g transform="translate(0.5,0.5)"><ellipse cx="1207.78" cy="400.63" rx="16.032993696897368" ry="16.032993696897368" fill="none" stroke="#00fac8" stroke-width="2" transform="rotate(30,1207.78,400.63)" pointer-events="all" style="stroke: rgb(0, 250, 200);"/></g></g><g data-cell-id="NM6jg3-jSMwz8pZw23oO-178"><g transform="translate(0.5,0.5)"><ellipse cx="1031.42" cy="707.93" rx="16.032993696897368" ry="16.032993696897368" fill="none" stroke="#00fac8" stroke-width="2" transform="rotate(30,1031.42,707.93)" pointer-events="all" style="stroke: rgb(0, 250, 200);"/></g></g></g><g data-cell-id="NM6jg3-jSMwz8pZw23oO-179"><g transform="translate(0.5,0.5)"/><g data-cell-id="NM6jg3-jSMwz8pZw23oO-180"><g transform="translate(0.5,0.5)"><ellipse cx="1030.08" cy="400.63" rx="16.032993696897368" ry="16.032993696897368" fill="none" stroke="#00fac8" stroke-width="2" transform="rotate(-30,1030.08,400.63)" pointer-events="all" style="stroke: rgb(0, 250, 200);"/></g></g><g data-cell-id="NM6jg3-jSMwz8pZw23oO-181"><g transform="translate(0.5,0.5)"><ellipse cx="1209.12" cy="707.94" rx="16.032993696897368" ry="16.032993696897368" fill="none" stroke="#00fac8" stroke-width="2" transform="rotate(-30,1209.12,707.94)" pointer-events="all" style="stroke: rgb(0, 250, 200);"/></g></g></g><g data-cell-id="NM6jg3-jSMwz8pZw23oO-182"><g transform="translate(0.5,0.5)"/><g data-cell-id="NM6jg3-jSMwz8pZw23oO-183"><g transform="translate(0.5,0.5)"><ellipse cx="1297.45" cy="554.28" rx="16.032993696897364" ry="16.032993696897364" fill="none" stroke="#00fac8" stroke-width="2" transform="rotate(90,1297.45,554.28)" pointer-events="all" style="stroke: rgb(0, 250, 200);"/></g></g><g data-cell-id="NM6jg3-jSMwz8pZw23oO-184"><g transform="translate(0.5,0.5)"><ellipse cx="942.04" cy="554.28" rx="16.032993696897364" ry="16.032993696897364" fill="none" stroke="#00fac8" stroke-width="2" transform="rotate(90,942.04,554.28)" pointer-events="all" style="stroke: rgb(0, 250, 200);"/></g></g><g data-cell-id="NM6jg3-jSMwz8pZw23oO-185"><g transform="translate(0.5,0.5)"/><g data-cell-id="NM6jg3-jSMwz8pZw23oO-186"><g transform="translate(0.5,0.5)"><ellipse cx="1268.05" cy="642.46" rx="16.032993696897368" ry="16.032993696897368" fill="none" stroke="#00fac8" stroke-width="2" transform="rotate(120,1268.05,642.46)" pointer-events="all" style="stroke: rgb(0, 250, 200);"/></g></g><g data-cell-id="NM6jg3-jSMwz8pZw23oO-187"><g transform="translate(0.5,0.5)"><ellipse cx="960.75" cy="466.1" rx="16.032993696897368" ry="16.032993696897368" fill="none" stroke="#00fac8" stroke-width="2" transform="rotate(120,960.75,466.1)" pointer-events="all" style="stroke: rgb(0, 250, 200);"/></g></g></g><g data-cell-id="NM6jg3-jSMwz8pZw23oO-188"><g transform="translate(0.5,0.5)"/><g data-cell-id="NM6jg3-jSMwz8pZw23oO-189"><g transform="translate(0.5,0.5)"><ellipse cx="1268.05" cy="464.76" rx="16.032993696897368" ry="16.032993696897368" fill="none" stroke="#00fac8" stroke-width="2" transform="rotate(60,1268.05,464.76)" pointer-events="all" style="stroke: rgb(0, 250, 200);"/></g></g><g data-cell-id="NM6jg3-jSMwz8pZw23oO-190"><g transform="translate(0.5,0.5)"><ellipse cx="960.75" cy="643.8" rx="16.032993696897368" ry="16.032993696897368" fill="none" stroke="#00fac8" stroke-width="2" transform="rotate(60,960.75,643.8)" pointer-events="all" style="stroke: rgb(0, 250, 200);"/></g></g></g></g><g data-cell-id="NM6jg3-jSMwz8pZw23oO-191"><g transform="translate(0.5,0.5)"/><g data-cell-id="NM6jg3-jSMwz8pZw23oO-192"><g transform="translate(0.5,0.5)"><ellipse cx="1119.6" cy="443.42" rx="9.519590007532813" ry="9.519590007532813" fill="none" stroke="#00fac8" stroke-width="2" pointer-events="all" style="stroke: rgb(0, 250, 200);"/></g></g><g data-cell-id="NM6jg3-jSMwz8pZw23oO-193"><g transform="translate(0.5,0.5)"><ellipse cx="1119.6" cy="654.44" rx="9.519590007532813" ry="9.519590007532813" fill="none" stroke="#00fac8" stroke-width="2" pointer-events="all" style="stroke: rgb(0, 250, 200);"/></g></g><g data-cell-id="NM6jg3-jSMwz8pZw23oO-194"><g transform="translate(0.5,0.5)"/><g data-cell-id="NM6jg3-jSMwz8pZw23oO-195"><g transform="translate(0.5,0.5)"><ellipse cx="1171.96" cy="460.88" rx="9.519590007532814" ry="9.519590007532814" fill="none" stroke="#00fac8" stroke-width="2" transform="rotate(30,1171.96,460.88)" pointer-events="all" style="stroke: rgb(0, 250, 200);"/></g></g><g data-cell-id="NM6jg3-jSMwz8pZw23oO-196"><g transform="translate(0.5,0.5)"><ellipse cx="1067.24" cy="643.34" rx="9.519590007532814" ry="9.519590007532814" fill="none" stroke="#00fac8" stroke-width="2" transform="rotate(30,1067.24,643.34)" pointer-events="all" style="stroke: rgb(0, 250, 200);"/></g></g></g><g data-cell-id="NM6jg3-jSMwz8pZw23oO-197"><g transform="translate(0.5,0.5)"/><g data-cell-id="NM6jg3-jSMwz8pZw23oO-198"><g transform="translate(0.5,0.5)"><ellipse cx="1066.45" cy="460.88" rx="9.519590007532814" ry="9.519590007532814" fill="none" stroke="#00fac8" stroke-width="2" transform="rotate(-30,1066.45,460.88)" pointer-events="all" style="stroke: rgb(0, 250, 200);"/></g></g><g data-cell-id="NM6jg3-jSMwz8pZw23oO-199"><g transform="translate(0.5,0.5)"><ellipse cx="1172.75" cy="643.34" rx="9.519590007532814" ry="9.519590007532814" fill="none" stroke="#00fac8" stroke-width="2" transform="rotate(-30,1172.75,643.34)" pointer-events="all" style="stroke: rgb(0, 250, 200);"/></g></g></g><g data-cell-id="NM6jg3-jSMwz8pZw23oO-200"><g transform="translate(0.5,0.5)"/><g data-cell-id="NM6jg3-jSMwz8pZw23oO-201"><g transform="translate(0.5,0.5)"><ellipse cx="1225.2" cy="552.11" rx="9.519590007532814" ry="9.519590007532814" fill="none" stroke="#00fac8" stroke-width="2" transform="rotate(90,1225.2,552.11)" pointer-events="all" style="stroke: rgb(0, 250, 200);"/></g></g><g data-cell-id="NM6jg3-jSMwz8pZw23oO-202"><g transform="translate(0.5,0.5)"><ellipse cx="1014.18" cy="552.11" rx="9.519590007532814" ry="9.519590007532814" fill="none" stroke="#00fac8" stroke-width="2" transform="rotate(90,1014.18,552.11)" pointer-events="all" style="stroke: rgb(0, 250, 200);"/></g></g><g data-cell-id="NM6jg3-jSMwz8pZw23oO-203"><g transform="translate(0.5,0.5)"/><g data-cell-id="NM6jg3-jSMwz8pZw23oO-204"><g transform="translate(0.5,0.5)"><ellipse cx="1207.74" cy="604.47" rx="9.519590007532816" ry="9.519590007532816" fill="none" stroke="#00fac8" stroke-width="2" transform="rotate(120,1207.74,604.47)" pointer-events="all" style="stroke: rgb(0, 250, 200);"/></g></g><g data-cell-id="NM6jg3-jSMwz8pZw23oO-205"><g transform="translate(0.5,0.5)"><ellipse cx="1025.28" cy="499.75" rx="9.519590007532816" ry="9.519590007532816" fill="none" stroke="#00fac8" stroke-width="2" transform="rotate(120,1025.28,499.75)" pointer-events="all" style="stroke: rgb(0, 250, 200);"/></g></g></g><g data-cell-id="NM6jg3-jSMwz8pZw23oO-206"><g transform="translate(0.5,0.5)"/><g data-cell-id="NM6jg3-jSMwz8pZw23oO-207"><g transform="translate(0.5,0.5)"><ellipse cx="1207.74" cy="498.96" rx="9.519590007532816" ry="9.519590007532816" fill="none" stroke="#00fac8" stroke-width="2" transform="rotate(60,1207.74,498.96)" pointer-events="all" style="stroke: rgb(0, 250, 200);"/></g></g><g data-cell-id="NM6jg3-jSMwz8pZw23oO-208"><g transform="translate(0.5,0.5)"><ellipse cx="1025.28" cy="605.26" rx="9.519590007532816" ry="9.519590007532816" fill="none" stroke="#00fac8" stroke-width="2" transform="rotate(60,1025.28,605.26)" pointer-events="all" style="stroke: rgb(0, 250, 200);"/></g></g></g></g></g></g></g><g data-cell-id="5utG4yoqGBnhhhAGblXh-261"><g transform="translate(0.5,0.5)"><ellipse cx="581.88" cy="278.52" rx="24.2165008963554" ry="24.2165008963554" fill="none" stroke="#00fac8" stroke-width="2" pointer-events="all" style="stroke: rgb(0, 250, 200);"/></g></g><g data-cell-id="5utG4yoqGBnhhhAGblXh-262"><g transform="translate(0.5,0.5)"><ellipse cx="581.88" cy="815.33" rx="24.2165008963554" ry="24.2165008963554" fill="none" stroke="#00fac8" stroke-width="2" pointer-events="all" style="stroke: rgb(0, 250, 200);"/></g></g><g data-cell-id="5utG4yoqGBnhhhAGblXh-263"><g transform="translate(0.5,0.5)"><ellipse cx="715.07" cy="322.92" rx="24.2165008963554" ry="24.2165008963554" fill="none" stroke="#00fac8" stroke-width="2" transform="rotate(30,715.07,322.92)" pointer-events="all" style="stroke: rgb(0, 250, 200);"/></g></g><g data-cell-id="5utG4yoqGBnhhhAGblXh-264"><g transform="translate(0.5,0.5)"><ellipse cx="448.69" cy="787.08" rx="24.2165008963554" ry="24.2165008963554" fill="none" stroke="#00fac8" stroke-width="2" transform="rotate(30,448.69,787.08)" pointer-events="all" style="stroke: rgb(0, 250, 200);"/></g></g><g data-cell-id="5utG4yoqGBnhhhAGblXh-265"><g transform="translate(0.5,0.5)"><ellipse cx="446.68" cy="322.93" rx="24.2165008963554" ry="24.2165008963554" fill="none" stroke="#00fac8" stroke-width="2" transform="rotate(-30,446.68,322.93)" pointer-events="all" style="stroke: rgb(0, 250, 200);"/></g></g><g data-cell-id="5utG4yoqGBnhhhAGblXh-266"><g transform="translate(0.5,0.5)"><ellipse cx="717.1" cy="787.08" rx="24.2165008963554" ry="24.2165008963554" fill="none" stroke="#00fac8" stroke-width="2" transform="rotate(-30,717.1,787.08)" pointer-events="all" style="stroke: rgb(0, 250, 200);"/></g></g><g data-cell-id="5utG4yoqGBnhhhAGblXh-267"><g transform="translate(0.5,0.5)"><ellipse cx="850.51" cy="555" rx="24.2165008963554" ry="24.2165008963554" fill="none" stroke="#00fac8" stroke-width="2" transform="rotate(90,850.51,555)" pointer-events="all" style="stroke: rgb(0, 250, 200);"/></g></g><g data-cell-id="5utG4yoqGBnhhhAGblXh-268"><g transform="translate(0.5,0.5)"><ellipse cx="313.7" cy="555" rx="24.2165008963554" ry="24.2165008963554" fill="none" stroke="#00fac8" stroke-width="2" transform="rotate(90,313.7,555)" pointer-events="all" style="stroke: rgb(0, 250, 200);"/></g></g><g data-cell-id="5utG4yoqGBnhhhAGblXh-269"><g transform="translate(0.5,0.5)"><ellipse cx="806.11" cy="688.19" rx="24.2165008963554" ry="24.2165008963554" fill="none" stroke="#00fac8" stroke-width="2" transform="rotate(120,806.11,688.19)" pointer-events="all" style="stroke: rgb(0, 250, 200);"/></g></g><g data-cell-id="5utG4yoqGBnhhhAGblXh-270"><g transform="translate(0.5,0.5)"><ellipse cx="341.95" cy="421.81" rx="24.2165008963554" ry="24.2165008963554" fill="none" stroke="#00fac8" stroke-width="2" transform="rotate(120,341.95,421.81)" pointer-events="all" style="stroke: rgb(0, 250, 200);"/></g></g><g data-cell-id="5utG4yoqGBnhhhAGblXh-271"><g transform="translate(0.5,0.5)"><ellipse cx="806.11" cy="419.79" rx="24.2165008963554" ry="24.2165008963554" fill="none" stroke="#00fac8" stroke-width="2" transform="rotate(60,806.11,419.79)" pointer-events="all" style="stroke: rgb(0, 250, 200);"/></g></g><g data-cell-id="5utG4yoqGBnhhhAGblXh-272"><g transform="translate(0.5,0.5)"><ellipse cx="341.95" cy="690.21" rx="24.2165008963554" ry="24.2165008963554" fill="none" stroke="#00fac8" stroke-width="2" transform="rotate(60,341.95,690.21)" pointer-events="all" style="stroke: rgb(0, 250, 200);"/></g></g><g data-cell-id="5utG4yoqGBnhhhAGblXh-273"><g transform="translate(0.5,0.5)"/><g data-cell-id="5utG4yoqGBnhhhAGblXh-274"><g transform="translate(0.5,0.5)"><ellipse cx="584.12" cy="371.24" rx="16.032993696897364" ry="16.032993696897364" fill="none" stroke="#00fac8" stroke-width="2" pointer-events="all" style="stroke: rgb(0, 250, 200);"/></g></g><g data-cell-id="5utG4yoqGBnhhhAGblXh-275"><g transform="translate(0.5,0.5)"><ellipse cx="584.12" cy="726.65" rx="16.032993696897364" ry="16.032993696897364" fill="none" stroke="#00fac8" stroke-width="2" pointer-events="all" style="stroke: rgb(0, 250, 200);"/></g></g><g data-cell-id="5utG4yoqGBnhhhAGblXh-276"><g transform="translate(0.5,0.5)"/><g data-cell-id="5utG4yoqGBnhhhAGblXh-277"><g transform="translate(0.5,0.5)"><ellipse cx="672.3" cy="400.64" rx="16.032993696897368" ry="16.032993696897368" fill="none" stroke="#00fac8" stroke-width="2" transform="rotate(30,672.3,400.64)" pointer-events="all" style="stroke: rgb(0, 250, 200);"/></g></g><g data-cell-id="5utG4yoqGBnhhhAGblXh-278"><g transform="translate(0.5,0.5)"><ellipse cx="495.93" cy="707.94" rx="16.032993696897368" ry="16.032993696897368" fill="none" stroke="#00fac8" stroke-width="2" transform="rotate(30,495.93,707.94)" pointer-events="all" style="stroke: rgb(0, 250, 200);"/></g></g></g><g data-cell-id="5utG4yoqGBnhhhAGblXh-279"><g transform="translate(0.5,0.5)"/><g data-cell-id="5utG4yoqGBnhhhAGblXh-280"><g transform="translate(0.5,0.5)"><ellipse cx="494.6" cy="400.64" rx="16.032993696897368" ry="16.032993696897368" fill="none" stroke="#00fac8" stroke-width="2" transform="rotate(-30,494.6,400.64)" pointer-events="all" style="stroke: rgb(0, 250, 200);"/></g></g><g data-cell-id="5utG4yoqGBnhhhAGblXh-281"><g transform="translate(0.5,0.5)"><ellipse cx="673.64" cy="707.95" rx="16.032993696897368" ry="16.032993696897368" fill="none" stroke="#00fac8" stroke-width="2" transform="rotate(-30,673.64,707.95)" pointer-events="all" style="stroke: rgb(0, 250, 200);"/></g></g></g><g data-cell-id="5utG4yoqGBnhhhAGblXh-282"><g transform="translate(0.5,0.5)"/><g data-cell-id="5utG4yoqGBnhhhAGblXh-283"><g transform="translate(0.5,0.5)"><ellipse cx="761.96" cy="554.29" rx="16.032993696897364" ry="16.032993696897364" fill="none" stroke="#00fac8" stroke-width="2" transform="rotate(90,761.96,554.29)" pointer-events="all" style="stroke: rgb(0, 250, 200);"/></g></g><g data-cell-id="5utG4yoqGBnhhhAGblXh-284"><g transform="translate(0.5,0.5)"><ellipse cx="406.56" cy="554.29" rx="16.032993696897364" ry="16.032993696897364" fill="none" stroke="#00fac8" stroke-width="2" transform="rotate(90,406.56,554.29)" pointer-events="all" style="stroke: rgb(0, 250, 200);"/></g></g><g data-cell-id="5utG4yoqGBnhhhAGblXh-285"><g transform="translate(0.5,0.5)"/><g data-cell-id="5utG4yoqGBnhhhAGblXh-286"><g transform="translate(0.5,0.5)"><ellipse cx="732.57" cy="642.47" rx="16.032993696897368" ry="16.032993696897368" fill="none" stroke="#00fac8" stroke-width="2" transform="rotate(120,732.57,642.47)" pointer-events="all" style="stroke: rgb(0, 250, 200);"/></g></g><g data-cell-id="5utG4yoqGBnhhhAGblXh-287"><g transform="translate(0.5,0.5)"><ellipse cx="425.27" cy="466.11" rx="16.032993696897368" ry="16.032993696897368" fill="none" stroke="#00fac8" stroke-width="2" transform="rotate(120,425.27,466.11)" pointer-events="all" style="stroke: rgb(0, 250, 200);"/></g></g></g><g data-cell-id="5utG4yoqGBnhhhAGblXh-288"><g transform="translate(0.5,0.5)"/><g data-cell-id="5utG4yoqGBnhhhAGblXh-289"><g transform="translate(0.5,0.5)"><ellipse cx="732.57" cy="464.77" rx="16.032993696897368" ry="16.032993696897368" fill="none" stroke="#00fac8" stroke-width="2" transform="rotate(60,732.57,464.77)" pointer-events="all" style="stroke: rgb(0, 250, 200);"/></g></g><g data-cell-id="5utG4yoqGBnhhhAGblXh-290"><g transform="translate(0.5,0.5)"><ellipse cx="425.27" cy="643.81" rx="16.032993696897368" ry="16.032993696897368" fill="none" stroke="#00fac8" stroke-width="2" transform="rotate(60,425.27,643.81)" pointer-events="all" style="stroke: rgb(0, 250, 200);"/></g></g></g></g><g data-cell-id="5utG4yoqGBnhhhAGblXh-291"><g transform="translate(0.5,0.5)"/><g data-cell-id="5utG4yoqGBnhhhAGblXh-292"><g transform="translate(0.5,0.5)"><ellipse cx="584.12" cy="443.43" rx="9.519590007532813" ry="9.519590007532813" fill="none" stroke="#00fac8" stroke-width="2" pointer-events="all" style="stroke: rgb(0, 250, 200);"/></g></g><g data-cell-id="5utG4yoqGBnhhhAGblXh-293"><g transform="translate(0.5,0.5)"><ellipse cx="584.12" cy="654.46" rx="9.519590007532813" ry="9.519590007532813" fill="none" stroke="#00fac8" stroke-width="2" pointer-events="all" style="stroke: rgb(0, 250, 200);"/></g></g><g data-cell-id="5utG4yoqGBnhhhAGblXh-294"><g transform="translate(0.5,0.5)"/><g data-cell-id="5utG4yoqGBnhhhAGblXh-295"><g transform="translate(0.5,0.5)"><ellipse cx="636.48" cy="460.89" rx="9.519590007532814" ry="9.519590007532814" fill="none" stroke="#00fac8" stroke-width="2" transform="rotate(30,636.48,460.89)" pointer-events="all" style="stroke: rgb(0, 250, 200);"/></g></g><g data-cell-id="5utG4yoqGBnhhhAGblXh-296"><g transform="translate(0.5,0.5)"><ellipse cx="531.76" cy="643.35" rx="9.519590007532814" ry="9.519590007532814" fill="none" stroke="#00fac8" stroke-width="2" transform="rotate(30,531.76,643.35)" pointer-events="all" style="stroke: rgb(0, 250, 200);"/></g></g></g><g data-cell-id="5utG4yoqGBnhhhAGblXh-297"><g transform="translate(0.5,0.5)"/><g data-cell-id="5utG4yoqGBnhhhAGblXh-298"><g transform="translate(0.5,0.5)"><ellipse cx="530.97" cy="460.89" rx="9.519590007532814" ry="9.519590007532814" fill="none" stroke="#00fac8" stroke-width="2" transform="rotate(-30,530.97,460.89)" pointer-events="all" style="stroke: rgb(0, 250, 200);"/></g></g><g data-cell-id="5utG4yoqGBnhhhAGblXh-299"><g transform="translate(0.5,0.5)"><ellipse cx="637.27" cy="643.35" rx="9.519590007532814" ry="9.519590007532814" fill="none" stroke="#00fac8" stroke-width="2" transform="rotate(-30,637.27,643.35)" pointer-events="all" style="stroke: rgb(0, 250, 200);"/></g></g></g><g data-cell-id="5utG4yoqGBnhhhAGblXh-300"><g transform="translate(0.5,0.5)"/><g data-cell-id="5utG4yoqGBnhhhAGblXh-301"><g transform="translate(0.5,0.5)"><ellipse cx="689.72" cy="552.12" rx="9.519590007532814" ry="9.519590007532814" fill="none" stroke="#00fac8" stroke-width="2" transform="rotate(90,689.72,552.12)" pointer-events="all" style="stroke: rgb(0, 250, 200);"/></g></g><g data-cell-id="5utG4yoqGBnhhhAGblXh-302"><g transform="translate(0.5,0.5)"><ellipse cx="478.7" cy="552.12" rx="9.519590007532814" ry="9.519590007532814" fill="none" stroke="#00fac8" stroke-width="2" transform="rotate(90,478.7,552.12)" pointer-events="all" style="stroke: rgb(0, 250, 200);"/></g></g><g data-cell-id="5utG4yoqGBnhhhAGblXh-303"><g transform="translate(0.5,0.5)"/><g data-cell-id="5utG4yoqGBnhhhAGblXh-304"><g transform="translate(0.5,0.5)"><ellipse cx="672.26" cy="604.48" rx="9.519590007532816" ry="9.519590007532816" fill="none" stroke="#00fac8" stroke-width="2" transform="rotate(120,672.26,604.48)" pointer-events="all" style="stroke: rgb(0, 250, 200);"/></g></g><g data-cell-id="5utG4yoqGBnhhhAGblXh-305"><g transform="translate(0.5,0.5)"><ellipse cx="489.8" cy="499.76" rx="9.519590007532816" ry="9.519590007532816" fill="none" stroke="#00fac8" stroke-width="2" transform="rotate(120,489.8,499.76)" pointer-events="all" style="stroke: rgb(0, 250, 200);"/></g></g></g><g data-cell-id="5utG4yoqGBnhhhAGblXh-306"><g transform="translate(0.5,0.5)"/><g data-cell-id="5utG4yoqGBnhhhAGblXh-307"><g transform="translate(0.5,0.5)"><ellipse cx="672.26" cy="498.97" rx="9.519590007532816" ry="9.519590007532816" fill="none" stroke="#00fac8" stroke-width="2" transform="rotate(60,672.26,498.97)" pointer-events="all" style="stroke: rgb(0, 250, 200);"/></g></g><g data-cell-id="5utG4yoqGBnhhhAGblXh-308"><g transform="translate(0.5,0.5)"><ellipse cx="489.8" cy="605.27" rx="9.519590007532816" ry="9.519590007532816" fill="none" stroke="#00fac8" stroke-width="2" transform="rotate(60,489.8,605.27)" pointer-events="all" style="stroke: rgb(0, 250, 200);"/></g></g></g></g></g></g></g></g><g data-cell-id="1"/></g></g></svg>